HIERARCHY
ROOT Hips
{
  OFFSET 49.6339 94.3082 0.382554
  CHANNELS 6 Xposition Yposition Zposition Zrotation Xrotation Yrotation
  JOINT spine
  {
    OFFSET 0 7.80059 0.448573
    CHANNELS 3 Zrotation Xrotation Yrotation
    JOINT spine1
    {
      OFFSET 0 10.1364 0
      CHANNELS 3 Zrotation Xrotation Yrotation
      JOINT spine2
      {
        OFFSET 0 9.71251 0
        CHANNELS 3 Zrotation Xrotation Yrotation
        JOINT Neck
        {
          OFFSET 0 24.9361 1.18887
          CHANNELS 3 Zrotation Xrotation Yrotation
          JOINT Head
          {
            OFFSET 0 7.53384 0
            CHANNELS 3 Zrotation Xrotation Yrotation
            End Site
            {
              OFFSET 0 18.2361 -6.01402
            }
          }
        }
        JOINT RightShoulder
        {
          OFFSET -4.08965 10.4888 -0.569457
          CHANNELS 3 Zrotation Xrotation Yrotation
          JOINT RightArm
          {
            OFFSET 0 13.757 0
            CHANNELS 3 Zrotation Xrotation Yrotation
            JOINT RightArmRoll
            {
              OFFSET 0 6.94478 0
              CHANNELS 3 Zrotation Xrotation Yrotation
              JOINT RightForeArm
              {
                OFFSET 0 20.2277 0
                CHANNELS 3 Zrotation Xrotation Yrotation
                JOINT RightForeArmRoll
                {
                  OFFSET 0 7.79312 0
                  CHANNELS 3 Zrotation Xrotation Yrotation
                  JOINT RightHand
                  {
                    OFFSET 0 15.6391 0
                    CHANNELS 3 Zrotation Xrotation Yrotation
                    End Site
                    {
                      OFFSET 0 0 0
                    }
                  }
                }
              }
            }
          }
        }
        JOINT LeftShoulder
        {
          OFFSET 4.08965 10.4888 -0.569457
          CHANNELS 3 Zrotation Xrotation Yrotation
          JOINT LeftArm
          {
            OFFSET 0 13.757 0
            CHANNELS 3 Zrotation Xrotation Yrotation
            JOINT LeftArmRoll
            {
              OFFSET 0 6.94478 0
              CHANNELS 3 Zrotation Xrotation Yrotation
              JOINT LeftForeArm
              {
                OFFSET 0 20.2277 0
                CHANNELS 3 Zrotation Xrotation Yrotation
                JOINT LeftForeArmRoll
                {
                  OFFSET 0 7.79312 0
                  CHANNELS 3 Zrotation Xrotation Yrotation
                  JOINT LeftHand
                  {
                    OFFSET 0 15.6391 0
                    CHANNELS 3 Zrotation Xrotation Yrotation
                    End Site
                    {
                      OFFSET 0 0 0
                    }
                  }
                }
              }
            }
          }
        }
      }
    }
  }
  JOINT RightUpLeg
  {
    OFFSET -6.91416 -1.26788 -1.06358
    CHANNELS 3 Zrotation Xrotation Yrotation
    JOINT RightUpLegRoll
    {
      OFFSET 0 18.3378 0
      CHANNELS 3 Zrotation Xrotation Yrotation
      JOINT RightLeg
      {
        OFFSET 0 -22.7085 0
        CHANNELS 3 Zrotation Xrotation Yrotation
        JOINT RightLegRoll
        {
          OFFSET 0 22.7828 0
          CHANNELS 3 Zrotation Xrotation Yrotation
          JOINT RightFoot
          {
            OFFSET 0 18.9629 0
            CHANNELS 3 Zrotation Xrotation Yrotation
            JOINT RightToeBase
            {
              OFFSET 0 15.852 0
              CHANNELS 3 Zrotation Xrotation Yrotation
              End Site
              {
                OFFSET 0.00671906 7.677 -0.884893
              }
            }
          }
        }
      }
    }
  }
  JOINT LeftUpLeg
  {
    OFFSET 6.91416 -1.26788 -1.06358
    CHANNELS 3 Zrotation Xrotation Yrotation
    JOINT LeftUpLegRoll
    {
      OFFSET 0 18.3379 0
      CHANNELS 3 Zrotation Xrotation Yrotation
      JOINT LeftLeg
      {
        OFFSET 0 22.7084 0
        CHANNELS 3 Zrotation Xrotation Yrotation
        JOINT LeftLegRoll
        {
          OFFSET 0 22.9934 0
          CHANNELS 3 Zrotation Xrotation Yrotation
          JOINT LeftFoot
          {
            OFFSET 0 18.7522 0
            CHANNELS 3 Zrotation Xrotation Yrotation
            JOINT LeftToeBase
            {
              OFFSET 0 15.852 0
              CHANNELS 3 Zrotation Xrotation Yrotation
              End Site
              {
                OFFSET -0.030112 7.67701 -0.884893
              }
            }
          }
        }
      }
    }
  }
}
MOTION
Frames: 5
Frame Time: 0.00208333
49.8487 98.6594 8.33449 -1.05715 -1.253 -1.13919 0.0928113 -2.23481 0.21182 0.191531 -0.466459 0.415197 0.186595 1.1786 0.412064 -8.22361 9.97698 -0.000885448 11.0319 -10.0486 0.0936855 37.6801 -11.9413 -7.92697 47.6982 14.7857 55.9786 -2.27014e-005 1.62481e-006 -1.99759e-006 -0.978967 50.5461 0.503321 -3.02645e-006 8.622e-006 -3 8.02913 -4.95138 0.697684 -39.2695 -11.5166 7.50897 -51.9941 2.20446 -46.3483 7.10416e-006 4.37697e-007 7.19792e-008 6.34912 58.3922 -4.75809 1.01358e-005 -3.36223e-006 2.99998 -8.0289 -4.95151 -0.697699 165.296 5.60631 4.92278 180 7.01422e-015 178.475 -177.727 12.5104 179.184 2.0703e-006 2.19705e-006 -0.299925 -16.238 63.6972 16.5197 8.13635 25.2305 -3.49011 -162.989 6.12854 -4.44228 4.57705e-006 1.05463e-005 -1.18123 -3.07393 -19.6502 -0.077767 -2.56574e-006 -4.47281e-006 -0.309222 19.1566 68.4345 -19.9042 -8.13617 25.2278 3.49333 
49.8939 98.9311 8.45849 -1.00701 -1.32524 -1.19962 0.0943357 -2.2335 0.211495 0.194567 -0.463828 0.414414 0.189642 1.18123 0.41123 -8.54777 10.2447 0.0740656 11.2898 -10.243 0.142313 37.8621 -11.7938 -7.78574 48.4782 14.433 55.4529 -2.27014e-005 1.62481e-006 -1.99759e-006 -0.933384 50.4224 0.441152 -3.02645e-006 8.622e-006 -3 8.02913 -4.95138 0.697684 -39.7808 -11.262 7.2628 -52.2367 1.55911 -46.1217 7.10416e-006 4.37697e-007 7.19793e-008 6.22975 58.0961 -4.60255 1.01358e-005 -3.36223e-006 2.99998 -8.0289 -4.95151 -0.697699 165.422 5.54243 4.87807 180 7.01424e-015 178.478 -177.766 12.5357 179.196 2.0703e-006 2.19705e-006 -0.300513 -16.2137 63.6702 16.504 8.13649 25.2327 -3.48774 -163.186 5.94895 -4.27437 4.57705e-006 1.05463e-005 -1.17186 -3.11413 -19.4464 -0.0879341 -2.56574e-006 -4.47282e-006 -0.305712 19.1923 68.5045 -19.9642 -8.13649 25.2326 3.48774 
49.8412 99.0979 8.45547 -0.967157 -1.36589 -1.24584 0.097432 -2.23738 0.208903 0.200705 -0.471588 0.408972 0.195846 1.17347 0.405684 -8.86568 10.4952 0.14597 11.5481 -10.4365 0.18948 38.0546 -11.6516 -7.64998 49.2341 14.0821 54.9409 -2.27014e-005 1.62481e-006 -1.99759e-006 -0.883931 50.3068 0.379605 -3.02645e-006 8.622e-006 -3 8.02913 -4.95138 0.697684 -40.2722 -11.0186 7.03389 -52.4998 0.934878 -45.8725 7.10416e-006 4.37697e-007 7.19792e-008 6.10009 57.772 -4.43849 1.01358e-005 -3.36223e-006 2.99998 -8.0289 -4.95151 -0.697699 165.564 5.53881 4.82401 180 7.01425e-015 178.484 -177.807 12.6216 179.204 2.0703e-006 2.19705e-006 -0.301046 -16.1931 63.6436 16.4892 8.13649 25.2327 -3.48774 -163.363 5.8386 -4.13611 4.57705e-006 1.05463e-005 -1.16284 -3.16187 -19.2934 -0.0984925 -2.56574e-006 -4.47282e-006 -0.300704 19.217 68.5558 -20.0087 -8.13649 25.2327 3.48773 
49.8931 99.3325 8.51028 -0.93467 -1.38026 -1.28059 0.102084 -2.24552 0.204405 0.209914 -0.487874 0.399591 0.205168 1.15718 0.396146 -9.19329 10.7351 0.217466 11.8183 -10.6356 0.236621 38.2538 -11.5117 -7.51748 49.9717 13.7316 54.4334 -2.27014e-005 1.62481e-006 -1.99759e-006 -0.83219 50.1902 0.318701 -3.02645e-006 8.622e-006 -3 8.02913 -4.95138 0.697684 -40.7596 -10.7808 6.816 -52.7671 0.319702 -45.602 7.10416e-006 4.37697e-007 7.19793e-008 5.96429 57.4226 -4.26749 1.01358e-005 -3.36223e-006 2.99998 -8.0289 -4.95151 -0.697699 165.72 5.59367 4.76408 180 7.01428e-015 178.493 -177.849 12.7807 179.208 2.0703e-006 2.19705e-006 -0.299017 -16.1804 63.6303 16.482 8.13649 25.2327 -3.48774 -163.525 5.79283 -4.02403 4.57705e-006 1.05463e-005 -1.15336 -3.21559 -19.1987 -0.110238 -2.56574e-006 -4.47282e-006 -0.296771 19.2444 68.6096 -20.0555 -8.13649 25.2327 3.48773 
49.9834 99.5154 8.63483 -0.90876 -1.37124 -1.30501 0.108121 -2.25741 0.198234 0.221856 -0.511664 0.386748 0.217266 1.13339 0.383099 -9.52874 10.9651 0.288397 12.0985 -10.839 0.283555 38.4584 -11.3741 -7.38822 50.6928 13.3815 53.9311 -2.27014e-005 1.62481e-006 -1.99759e-006 -0.77871 50.0719 0.258576 -3.02645e-006 8.622e-006 -3 8.02913 -4.95138 0.697684 -41.2424 -10.5483 6.60835 -53.0385 -0.286734 -45.3131 7.10416e-006 4.37697e-007 7.19793e-008 5.82346 57.0482 -4.09096 1.01358e-005 -3.36223e-006 2.99998 -8.0289 -4.95151 -0.697699 165.889 5.7007 4.69885 180 7.01432e-015 178.504 -177.892 13.0051 179.209 2.0703e-006 2.19705e-006 -0.294686 -16.1748 63.629 16.4818 8.13649 25.2327 -3.48774 -163.674 5.80525 -3.93536 4.57705e-006 1.05463e-005 -1.14352 -3.27467 -19.1574 -0.123089 -2.56574e-006 -4.47282e-006 -0.293818 19.2742 68.6653 -20.1043 -8.13649 25.2327 3.48773 
